Coordinates
version=1
nRows=18
nColumns=22
inDegrees=yes

Units are S.I. units (second, meters, Newtons, ...)
If the header above contains a line with 'inDegrees', this indicates whether rotational values are in degrees (yes) or radians (no).

endheader
time	pelvis_tilt	pelvis_list	pelvis_rotation	pelvis_tx	pelvis_ty	pelvis_tz	hip_flexion_r	hip_adduction_r	hip_rotation_r	knee_angle_r	ankle_angle_r	subtalar_angle_r	hip_flexion_l	hip_adduction_l	hip_rotation_l	knee_angle_l	ankle_angle_l	subtalar_angle_l	lumbar_extension	lumbar_bending	lumbar_rotation
      0.01000000	      0.74104135	     -0.04125614	     -9.05840283	     -0.95503868	      0.90485690	     -0.43650644	     -5.74249248	     -0.58956283	     -3.29182837	     -2.50607006	     15.87372784	     -0.25083465	     -1.73663007	     -2.03518748	    -18.27362164	    -13.21756930	     16.43840555	      2.81088329	     -4.16082254	     -2.49077985	      4.04480627
      0.02000000	      0.77675781	     -0.04510871	     -9.07401796	     -0.95509315	      0.90492368	     -0.43651975	     -5.78872082	     -0.59309836	     -3.27093016	     -2.48041721	     15.83805853	     -0.35074462	     -1.78499154	     -2.02896365	    -18.30590431	    -13.19602176	     16.42166199	      2.85870891	     -4.20971679	     -2.48429368	      4.06442576
      0.03000000	      0.77735477	     -0.04310830	     -9.07243898	     -0.95518058	      0.90493615	     -0.43657448	     -5.78315868	     -0.59691503	     -3.26923892	     -2.47907448	     15.83811330	     -0.35167613	     -1.77936308	     -2.02374565	    -18.30691178	    -13.19358245	     16.42152158	      2.85904482	     -4.22039509	     -2.47425270	      4.06406309
      0.04000000	      0.77876618	     -0.04116877	     -9.07334361	     -0.95527788	      0.90494930	     -0.43663276	     -5.77627332	     -0.60198144	     -3.26627339	     -2.48021895	     15.83672705	     -0.35321725	     -1.77384249	     -2.01843301	    -18.30815909	    -13.19231174	     16.42047068	      2.85920270	     -4.23270489	     -2.46211765	      4.06291845
      0.05000000	      0.78674322	     -0.04172731	     -9.08434282	     -0.95540325	      0.90497643	     -0.43668479	     -5.75851580	     -0.60716415	     -3.24491023	     -2.51174940	     15.82424394	     -0.36318738	     -1.77157447	     -2.01434525	    -18.31470677	    -13.20000972	     16.41054491	      2.85822102	     -4.25622885	     -2.44555418	      4.05547530
      0.06000000	      0.78647650	     -0.03957354	     -9.08450545	     -0.95550623	      0.90498884	     -0.43673932	     -5.75140064	     -0.61110732	     -3.24515229	     -2.50901576	     15.82362511	     -0.36470622	     -1.76489530	     -2.00917836	    -18.31884638	    -13.19539620	     16.40932704	      2.85800370	     -4.26763317	     -2.43321846	      4.05767924
      0.07000000	      0.78727694	     -0.03750276	     -9.08860399	     -0.95560274	      0.90500262	     -0.43679437	     -5.74403083	     -0.61628221	     -3.24519022	     -2.50856155	     15.82194933	     -0.36641977	     -1.75963866	     -2.00280492	    -18.32291601	    -13.19297890	     16.40728925	      2.85763995	     -4.27758568	     -2.41802748	      4.05835025
      0.08000000	      0.79174573	     -0.04147566	     -9.11248453	     -0.95572433	      0.90503297	     -0.43681463	     -5.71339149	     -0.61811975	     -3.22822475	     -2.55541515	     15.80333040	     -0.38196949	     -1.75998872	     -2.00445017	    -18.35628088	    -13.19253787	     16.38237886	      2.85217289	     -4.29460689	     -2.39533083	      4.05870732
      0.09000000	      0.79181334	     -0.03915280	     -9.11608752	     -0.95581905	      0.90504841	     -0.43685796	     -5.70683338	     -0.62245713	     -3.22971912	     -2.55116708	     15.80395231	     -0.38304379	     -1.75373937	     -1.99867714	    -18.35914531	    -13.19020689	     16.38117047	      2.85197847	     -4.30367093	     -2.38238322	      4.06080944
      0.10000000	      0.79272629	     -0.03698298	     -9.12308655	     -0.95591031	      0.90506578	     -0.43689614	     -5.69952848	     -0.62767826	     -3.23070003	     -2.54973001	     15.80369094	     -0.38423590	     -1.74837235	     -1.99315791	    -18.36183099	    -13.18951909	     16.37880404	      2.85163857	     -4.31250760	     -2.36775761	      4.06069397
      0.11000000	      0.79602470	     -0.04078671	     -9.14023787	     -0.95603244	      0.90509452	     -0.43691026	     -5.67059998	     -0.62741477	     -3.21672514	     -2.59197832	     15.79798536	     -0.39344580	     -1.74169674	     -1.99646554	    -18.38370235	    -13.19783042	     16.35319441	      2.84677267	     -4.32948060	     -2.34918281	      4.05740392
      0.12000000	      0.79706084	     -0.03876623	     -9.14566451	     -0.95611538	      0.90511358	     -0.43693992	     -5.66475082	     -0.63173821	     -3.21825566	     -2.58950193	     15.79845056	     -0.39415044	     -1.73647369	     -1.99192135	    -18.38472230	    -13.19759246	     16.35197786	      2.84656060	     -4.33683435	     -2.33754363	      4.05789159
      0.13000000	      0.80359085	     -0.04001562	     -9.15510572	     -0.95622232	      0.90514276	     -0.43696177	     -5.64876853	     -0.63403135	     -3.21010390	     -2.61642949	     15.79612216	     -0.39816078	     -1.72966925	     -1.99205235	    -18.38641519	    -13.21218933	     16.33962103	      2.84336234	     -4.35462982	     -2.32414342	      4.05544562
      0.14000000	      0.80515550	     -0.03893359	     -9.15621542	     -0.95631025	      0.90516407	     -0.43698663	     -5.64302840	     -0.63613922	     -3.21053372	     -2.61595377	     15.79621849	     -0.39869673	     -1.72387457	     -1.98929134	    -18.38725917	    -13.21120487	     16.33837194	      2.84285036	     -4.36457929	     -2.31669995	      4.05602720
      0.15000000	      0.81827157	     -0.04067278	     -9.15848815	     -0.95642642	      0.90520231	     -0.43701215	     -5.63430825	     -0.63802662	     -3.20314131	     -2.64389335	     15.79250506	     -0.40160329	     -1.71816210	     -1.99026483	    -18.38000445	    -13.23353578	     16.32875785	      2.83854486	     -4.39290691	     -2.30847875	      4.05611676
      0.16000000	      0.82120205	     -0.03997513	     -9.15597432	     -0.95651394	      0.90522359	     -0.43703812	     -5.63006993	     -0.63919240	     -3.20329225	     -2.64446903	     15.79252422	     -0.40207983	     -1.71290568	     -1.98817507	    -18.38021412	    -13.23339502	     16.32765584	      2.83758450	     -4.40459844	     -2.30327448	      4.05761434
      0.17000000	      0.84267977	     -0.04184779	     -9.15081100	     -0.95663673	      0.90527094	     -0.43706800	     -5.63106755	     -0.64126042	     -3.19893565	     -2.67234807	     15.78944290	     -0.40468468	     -1.70992609	     -1.98956417	    -18.36546720	    -13.26483657	     16.31950964	      2.83084957	     -4.44487271	     -2.30127176	      4.06266213
      0.18000000	      0.86457286	     -0.04479755	     -9.14173984	     -0.95674177	      0.90531721	     -0.43710329	     -5.63883816	     -0.64158354	     -3.20469462	     -2.69028255	     15.79107967	     -0.40746670	     -1.71408565	     -1.99078214	    -18.35596279	    -13.28434562	     16.31353423	      2.82056233	     -4.48371264	     -2.29794789	      4.06494143
